<svg xmlns="http://www.w3.org/2000/svg" viewBox="0 0 612 612"><path d="M609.6 315.4c3.2-5.9 3.2-13 0-18.9 -58.5-107.6-172.5-180.7-303.6-180.7S60.9 188.9 2.4 296.6c-3.2 5.9-3.2 13 0 18.9C60.9 423.1 174.9 496.1 306 496.1S551.1 423.1 609.6 315.4zM306 451.9c-80.6 0-145.9-65.3-145.9-145.9S225.4 160.1 306 160.1 451.9 225.4 451.9 306 386.6 451.9 306 451.9z"/><path d="M306 231.7c-6.1 0-12.1 0.7-17.8 2.2 5.8 6.8 9.4 15.6 9.4 25.2 0 21.3-17.3 38.6-38.6 38.6 -9.6 0-18.4-3.5-25.2-9.4 -1.4 5.7-2.1 11.7-2.1 17.8 0 41.1 33.3 74.3 74.3 74.3s74.3-33.3 74.3-74.3S347.1 231.7 306 231.7z"/></svg>